<mxfile host="app.diagrams.net" agent="Mozilla/5.0 (Windows NT 10.0; Win64; x64) AppleWebKit/537.36 (KHTML, like Gecko) Chrome/134.0.0.0 Safari/537.36 Edg/134.0.0.0" version="26.1.0">
  <diagram name="第 1 页" id="uumIqRgFV25TRmW-tFgD">
    <mxGraphModel dx="1213" dy="676" grid="1" gridSize="10" guides="1" tooltips="1" connect="1" arrows="1" fold="1" page="1" pageScale="1" pageWidth="827" pageHeight="1169" math="1" shadow="0">
      <root>
        <mxCell id="0" />
        <mxCell id="1" parent="0" />
        <mxCell id="9MBSfGOV7zKs2a5q2MZf-3" value="" style="shape=cube;whiteSpace=wrap;html=1;boundedLbl=1;backgroundOutline=1;darkOpacity=0.05;darkOpacity2=0.1;size=50;direction=south;" vertex="1" parent="1">
          <mxGeometry x="110" y="120" width="80" height="120" as="geometry" />
        </mxCell>
        <mxCell id="9MBSfGOV7zKs2a5q2MZf-4" value="" style="shape=cube;whiteSpace=wrap;html=1;boundedLbl=1;backgroundOutline=1;darkOpacity=0.05;darkOpacity2=0.1;size=50;direction=south;fillColor=#dae8fc;strokeColor=#6c8ebf;" vertex="1" parent="1">
          <mxGeometry x="320" y="120" width="80" height="120" as="geometry" />
        </mxCell>
        <mxCell id="9MBSfGOV7zKs2a5q2MZf-6" value="&lt;font style=&quot;font-size: 14px;&quot;&gt;H×W×(&lt;/font&gt;&lt;font style=&quot;font-size: 14px;&quot;&gt;anchor&lt;/font&gt;&lt;span style=&quot;font-size: 14px;&quot;&gt;×C&lt;/span&gt;&lt;span style=&quot;font-size: 14px; background-color: transparent; color: light-dark(rgb(0, 0, 0), rgb(255, 255, 255));&quot;&gt;+&lt;/span&gt;&lt;span style=&quot;background-color: transparent; color: light-dark(rgb(0, 0, 0), rgb(255, 255, 255)); font-size: 14px;&quot;&gt;anchor&lt;/span&gt;&lt;span style=&quot;background-color: transparent; color: light-dark(rgb(0, 0, 0), rgb(255, 255, 255)); font-size: 14px;&quot;&gt;×4)&lt;/span&gt;&lt;div&gt;&lt;br&gt;&lt;/div&gt;" style="text;html=1;align=center;verticalAlign=middle;whiteSpace=wrap;rounded=0;" vertex="1" parent="1">
          <mxGeometry x="415" y="140" width="210" height="80" as="geometry" />
        </mxCell>
        <mxCell id="9MBSfGOV7zKs2a5q2MZf-10" value="&lt;font face=&quot;Helvetica&quot;&gt;$$Cls$$&lt;/font&gt;" style="text;html=1;align=center;verticalAlign=middle;whiteSpace=wrap;rounded=0;" vertex="1" parent="1">
          <mxGeometry x="480" y="190" width="60" height="30" as="geometry" />
        </mxCell>
        <mxCell id="9MBSfGOV7zKs2a5q2MZf-11" value="$$Reg$$" style="text;html=1;align=center;verticalAlign=middle;whiteSpace=wrap;rounded=0;" vertex="1" parent="1">
          <mxGeometry x="540" y="190" width="60" height="30" as="geometry" />
        </mxCell>
        <mxCell id="9MBSfGOV7zKs2a5q2MZf-13" value="" style="endArrow=classic;html=1;rounded=0;" edge="1" parent="1">
          <mxGeometry width="50" height="50" relative="1" as="geometry">
            <mxPoint x="210" y="190" as="sourcePoint" />
            <mxPoint x="310" y="190" as="targetPoint" />
          </mxGeometry>
        </mxCell>
        <mxCell id="9MBSfGOV7zKs2a5q2MZf-15" value="&lt;font style=&quot;font-size: 14px;&quot;&gt;Conv&lt;/font&gt;&lt;div&gt;&lt;font size=&quot;3&quot;&gt;1x1&lt;/font&gt;&lt;/div&gt;" style="edgeLabel;html=1;align=center;verticalAlign=middle;resizable=0;points=[];" vertex="1" connectable="0" parent="9MBSfGOV7zKs2a5q2MZf-13">
          <mxGeometry x="0.0667" y="-1" relative="1" as="geometry">
            <mxPoint x="-3" y="-1" as="offset" />
          </mxGeometry>
        </mxCell>
        <mxCell id="9MBSfGOV7zKs2a5q2MZf-14" value="" style="endArrow=classic;html=1;rounded=0;" edge="1" parent="1">
          <mxGeometry width="50" height="50" relative="1" as="geometry">
            <mxPoint x="30" y="189" as="sourcePoint" />
            <mxPoint x="90" y="189" as="targetPoint" />
          </mxGeometry>
        </mxCell>
        <mxCell id="9MBSfGOV7zKs2a5q2MZf-16" value="&lt;font style=&quot;font-size: 14px;&quot;&gt;Neck&lt;/font&gt;" style="text;html=1;align=center;verticalAlign=middle;whiteSpace=wrap;rounded=0;" vertex="1" parent="1">
          <mxGeometry x="110" y="250" width="60" height="30" as="geometry" />
        </mxCell>
        <mxCell id="9MBSfGOV7zKs2a5q2MZf-17" value="&lt;font style=&quot;font-size: 14px;&quot;&gt;Head&lt;/font&gt;" style="text;html=1;align=center;verticalAlign=middle;whiteSpace=wrap;rounded=0;" vertex="1" parent="1">
          <mxGeometry x="320" y="250" width="60" height="30" as="geometry" />
        </mxCell>
      </root>
    </mxGraphModel>
  </diagram>
</mxfile>
